<?xml version="1.0"?>
<svg xmlns="http://www.w3.org/2000/svg" xmlns:xlink="http://www.w3.org/1999/xlink" version="1.1" id="Layer_1" x="0px" y="0px" viewBox="0 0 512 512" style="enable-background:new 0 0 512 512;" xml:space="preserve" width="512px" height="512px" class=""><g><rect x="158.072" y="208.837" transform="matrix(-0.7071 0.7071 -0.7071 -0.7071 591.7224 240.6056)" style="fill:#92949B" width="175.916" height="68.031" data-original="#92949B" class=""/><g>
	
		<rect x="141.326" y="215.77" transform="matrix(-0.7071 0.7071 -0.7071 -0.7071 551.296 223.8635)" style="fill:#66686D;" width="175.916" height="20.678" data-original="#66686D" class=""/>
	
		<rect x="274.473" y="160.623" transform="matrix(-0.7071 0.7071 -0.7071 -0.7071 639.9423 124.2041)" style="fill:#66686D;" width="39.549" height="68.031" data-original="#66686D" class=""/>
</g><path style="fill:#00AF80" d="M13.928,476.492c-18.306-17.462-18.567-46.567-0.782-64.352l148.407-148.407  c2.992-2.982,7.829-2.982,10.81,0l2.346,2.346l13.062,13.062l0.01,0.021l35.027,35.017l2.346,2.346c2.981,2.981,2.981,7.819,0,10.81  L77.342,475.136C59.974,492.504,31.692,493.442,13.928,476.492z" data-original="#EA3D3D" class="" data-old_color="#EA3D3D"/><g>
	<path style="fill:#484B54;" d="M300.167,58.737c-37.013-37.013-95.618-47.598-143.587-19.423   c43.975,19.517,93.579,64.68,111.84,96.263l17.177-17.177l37.09-37.142l-0.018-0.018C310.202,68.772,301.139,59.709,300.167,58.737   z" data-original="#484B54" class=""/>
	<path style="fill:#484B54;" d="M416.878,151.954l-78.467,78.467l-3.649,6.609c10.766-5.361,31.393-5.955,42.366,5.017   c10.903,10.903,14.208,25.946,8.967,36.695l1.171,0.534l78.467-78.467l-0.585-1.274c-10.731,5.052-25.602,1.713-36.411-9.097   c-10.99-10.99-10.361-31.669-4.949-42.435L416.878,151.954z" data-original="#484B54" class=""/>
</g><path style="fill:#69E781" d="M13.928,476.492c-18.306-17.462-18.567-46.567-0.782-64.352l148.407-148.407  c2.992-2.982,7.829-2.982,10.81,0l2.346,2.346l13.062,13.062l0.01,0.021C187.782,279.161,27.845,418.874,13.928,476.492z" data-original="#D33333" class="" data-old_color="#D33333"/><path style="fill:#92949B" d="M422.973,325.234l-40.834-40.834c1.637-1.678,2.961-3.597,3.961-5.661l42.377-42.471l26.646-26.698  l10.029-10.039c2.21-1.022,4.232-2.408,6.015-4.159L512,236.217l-15.116,15.116L470.207,278L422.973,325.234z" data-original="#92949B" class=""/><polygon style="fill:#69E781" points="470.207,278 428.477,236.269 455.123,209.572 496.884,251.333 " data-original="#B5B6BA" class="active-path" data-old_color="#B5B6BA"/><path style="fill:#92949B" d="M339.849,64.064l-17.16,17.195l-37.09,37.142l-17.177,17.177l-17.555,17.555l18.39,18.39l0.008-0.008  l48.106,48.106l-0.008,0.008l17.401,17.401c1.644-1.592,87.425-87.391,89.026-89.026C423.789,148.004,371.122,95.337,339.849,64.064  z" data-original="#92949B" class=""/></g> </svg>
