<?xml version="1.0" standalone="no"?>
<!DOCTYPE svg PUBLIC "-//W3C//DTD SVG 20010904//EN"
 "http://www.w3.org/TR/2001/REC-SVG-20010904/DTD/svg10.dtd">
<svg version="1.0" xmlns="http://www.w3.org/2000/svg"
 width="944.000000pt" height="856.000000pt" viewBox="0 0 944.000000 856.000000"
 preserveAspectRatio="xMidYMid meet">

<g transform="translate(0.000000,856.000000) scale(0.100000,-0.100000)"
fill="#000000" stroke="none">
<path d="M4150 8354 c-1354 -122 -2536 -802 -3253 -1874 -333 -496 -539 -1046
-623 -1660 -21 -158 -30 -588 -15 -776 41 -517 166 -990 376 -1419 94 -194
171 -320 294 -485 95 -128 287 -330 401 -423 230 -186 496 -312 781 -368 153
-31 419 -33 590 -5 64 11 128 16 143 12 15 -4 46 -28 69 -54 86 -98 365 -371
447 -436 388 -309 828 -498 1290 -556 124 -15 411 -12 547 5 418 55 860 220
1318 493 83 49 215 128 295 175 707 419 1294 1064 1626 1787 467 1019 467
2160 -1 3180 -357 779 -1004 1458 -1798 1886 -469 253 -980 417 -1550 495
-127 18 -212 22 -522 24 -203 1 -390 1 -415 -1z m836 -933 c602 -81 1158 -302
1622 -645 535 -395 924 -922 1122 -1516 258 -774 173 -1604 -237 -2334 -67
-118 -73 -126 -303 -357 -518 -519 -1108 -942 -1566 -1122 -90 -35 -246 -78
-414 -113 -195 -41 -463 -15 -664 62 -250 96 -513 285 -544 390 -28 95 0 199
69 260 20 16 692 499 1495 1073 962 688 1478 1063 1515 1101 127 131 161 316
90 484 -34 78 -276 410 -431 590 -482 561 -1008 866 -1599 927 -140 14 -407 7
-541 -16 -387 -65 -762 -222 -1150 -481 -732 -489 -1216 -1147 -1355 -1839
-37 -187 -48 -304 -48 -510 1 -291 36 -512 128 -805 42 -131 44 -143 31 -174
-19 -46 -61 -76 -107 -76 -96 0 -355 232 -496 443 -214 322 -354 716 -420
1182 -22 161 -26 627 -5 770 87 603 317 1109 714 1570 545 633 1386 1063 2238
1144 63 6 131 13 150 15 97 11 562 -4 706 -23z m187 -2210 c285 -78 599 -310
795 -586 29 -40 33 -101 10 -134 -20 -28 -2377 -1717 -2447 -1753 -86 -45
-169 -34 -246 34 -49 44 -95 141 -150 323 -84 278 -89 566 -14 795 86 261 285
551 526 766 337 300 716 510 1029 568 119 23 393 15 497 -13z"/>
</g>
</svg>
